<svg width="154" height="35" viewBox="0 0 154 35" fill="none" xmlns="http://www.w3.org/2000/svg">
<path d="M45.3 17.6C44.1 16.7 43 16 42 15.6L43.3 13.6C44.4 14.2 45.5 14.9 46.5 15.6L45.3 17.6ZM42.3 24.3C43.1 22.9 43.9 20.9 44.6 18.1C45.2 18.5 45.8 18.9 46.4 19.1C46.1 20.1 45.7 21.6 45.2 23.8C45 24.7 44.9 25.4 44.8 25.8C43.5 25.2 42.7 24.7 42.3 24.3ZM42.8 11L44.3 9.2C45.3 10 46.1 10.8 46.6 11.4L45.2 13.1C44.4 12.2 43.6 11.5 42.8 11ZM49.4 18.2V12.5H51.3V18.4C51.3 19.2 51.3 20.1 51.2 21C52.6 22 53.8 22.9 54.8 23.7C53.9 24.4 53.3 25.1 52.9 25.6C52.7 25.4 52.4 25.1 51.9 24.6C51.3 24 50.8 23.5 50.5 23.2C49.7 24.3 48.7 25.3 47.5 26.2C47 25.6 46.4 25.1 45.7 24.6C47.2 23.6 48.2 22.7 48.7 21.9C49.2 21 49.4 19.8 49.4 18.2ZM46.9 9.9H53.8V21H51.9V11.7H48.9V21.1H47V9.9H46.9ZM54.4 21.3V11H55.7C56 11 56.2 11 56.3 11.1V11.2C56.2 11.4 56.2 11.7 56.2 12.2V21.2H54.4V21.3ZM56.7 23.2V9.4H58C58.6 9.4 59 9.4 59.1 9.5C59.1 9.6 59.1 9.7 59 9.8C58.9 10.1 58.9 10.4 58.9 10.8V24.5C59.1 25.9 58 26.5 55.7 26.3C55.7 25.5 55.5 24.7 55.2 24C56.3 24.1 56.8 23.9 56.7 23.2Z" fill="#783887"/>
<path d="M63.3 18.9V16.4H61.1V14.3H65.6V20.4C65.7 20.3 66 20 66.3 19.7C66.6 19.5 66.8 19.3 66.9 19.2C67.2 19.9 67.6 20.6 67.9 21.1L67.1 21.9L68.5 21.5V17.8H67.3V15.7H71.7V17.7H70.8V21L72.1 20.6C72.1 21.6 72.3 22.4 72.5 23C70.8 23.5 69 24.2 67.2 24.9C67.1 24.9 67.1 24.5 66.9 23.7C66.8 23.1 66.7 22.7 66.6 22.5C66.3 22.9 65.8 23.6 65.3 24.4C64.9 24.9 64.6 25.4 64.3 25.7C64.1 25.5 63.7 25 63.1 24.3C62.8 23.8 62.5 23.5 62.4 23.4C63 22.2 63.3 20.7 63.3 18.9ZM64.2 13.4C63.6 12.2 63 11.2 62.6 10.5L62.5 10.3C63.3 9.9 64.1 9.5 64.9 9.2C65.1 9.5 65.7 10.6 66.6 12.5C66.4 12.5 66.1 12.7 65.6 12.9C65 13.1 64.5 13.3 64.2 13.4ZM72.1 14.1H67.1V12.1H72.1V9C73.9 9 74.7 9 74.5 9.2V9.5C74.5 9.9 74.4 10.3 74.4 10.8V12.1H75.7C75.5 11.7 75.3 11.3 75 10.8C74.8 10.4 74.7 10.2 74.7 10.1C75.3 9.8 76 9.5 76.7 9.2C77 9.7 77.4 10.5 77.9 11.5C77.8 11.5 77.5 11.6 77.2 11.8C76.9 11.9 76.7 12 76.5 12.1H78.1V14.1H74.5V15.1C74.5 18.4 74.9 20.9 75.6 22.4C75.8 22.9 76 23.1 76.2 22.9C76.3 22.7 76.4 22.2 76.5 21.3C77 21.6 77.7 21.9 78.7 22.3C78.3 25.9 77 27 75 25.6C73.2 24.1 72.2 20.6 72.2 15.1V14.1H72.1Z" fill="#783887"/>
<path d="M80.6 13.2C81.7 11.7 82.6 10.2 83.1 8.8C84.2 8.9 85 9 85.5 9.1C85.7 9.1 85.8 9.2 85.7 9.3C85.7 9.3 85.6 9.4 85.5 9.6C85.4 9.8 85.2 10 85.1 10.2H89V12H86.7C87 12.8 87.2 13.3 87.1 13.4C87.1 13.4 86.4 13.7 84.9 14.1C84.9 14.1 84.8 13.4 84.5 12H83.9C83.3 12.9 82.8 13.6 82.4 14.1L80.6 13.2ZM90.1 13.4L90.2 14.2H97V17.5H94.7V15.8H82.9V17.4H80.7V14.1H87.7C87.6 13.9 87.5 13.6 87.3 13.2C87.3 13.1 87.9 13 89.2 13C89.1 13 88.9 12.9 88.7 12.7C89.6 11.4 90.2 10 90.6 8.7C91.6 8.7 92.4 8.8 93 8.9C93.1 8.9 93.2 8.9 93.3 9C93.3 9.1 93.2 9.1 93.2 9.3C93.1 9.4 92.9 9.7 92.8 10H97.3V12H94.9L95.3 13.5L93.3 14.1C93.2 13.7 92.9 13 92.6 12H91.7C91.3 12.6 90.9 13.2 90.7 13.6C90.6 13.7 90.4 13.6 90.1 13.4ZM86.1 26.2H83.7V16.6H93.9V20.5H86V21.2H94.5V26.2H92.2V25.4H86V26.2H86.1ZM91.7 18.9V18.2H86.1V18.9H91.7ZM92.3 23.7V22.8H86.1V23.7H92.3Z" fill="#783887"/>
<path d="M101.5 12H99.2V9.99999H105.5V12H103.7V15.2H105.4V17.2H103.7V20.8C103.9 20.8 104.2 20.7 104.5 20.6C104.9 20.5 105.3 20.3 105.5 20.2C105.5 20.4 105.5 20.7 105.6 21C105.6 21.8 105.7 22.3 105.7 22.4C103.8 23 101.9 23.7 100 24.5C99.6 23.7 99.3 22.8 99 21.9C99.3 21.8 99.7 21.7 100.3 21.6C100.8 21.5 101.2 21.4 101.5 21.3V17.2H99.3V15.2H101.5V12V12ZM106.2 22V20.1H109.5V18.8H105.9V9.59999H115.6V18.8H111.7V20.1H115.5V22H111.7V23.6H116.4V25.7H104.7V23.6H109.4V22H106.2ZM108.2 11.5V13.3H109.5V11.5H108.2ZM108.2 15.1V16.8H109.5V15.1H108.2V15.1ZM111.8 11.5V13.3H113.4V11.5H111.8ZM111.8 16.8H113.4V15.1H111.8V16.8Z" fill="#783887"/>
<path d="M119.9 11.6V9.39999H133.4V11.6H127.9V17.8H135.2V20H127.9V26.4H125.4V20H118.2V17.8H125.4V11.6H119.9V11.6ZM120.3 13.3C120.5 13.2 120.9 13 121.3 12.8C121.7 12.6 122.1 12.4 122.3 12.3C122.7 12.9 123.5 14.3 124.7 16.6C124.2 16.9 123.4 17.2 122.5 17.6C122.4 17.4 122.3 17.1 122.1 16.7C121.4 15.1 120.8 14 120.3 13.3ZM128.5 16.6C129.2 15.5 129.9 14 130.7 12.1C132.1 12.8 132.9 13.2 133.1 13.4C132.3 14.8 131.4 16.2 130.6 17.6C130.6 17.6 130.5 17.6 130.5 17.5C129.7 17 129.1 16.7 128.5 16.6Z" fill="#783887"/>
<path d="M138.4 14.5C140.5 14.6 142.4 12.7 144.1 8.7C145.7 9.1 146.7 9.4 147.1 9.7C145.8 11.3 144.4 12.9 142.9 14.4L149.1 14.3C148.8 14 148.2 13.5 147.5 12.8C147.3 12.6 147.1 12.4 146.9 12.3L149 10.9C150.2 11.9 151.8 13.5 153.9 15.7L151.7 17.4C151.4 17 151.1 16.6 150.8 16.3C150.2 16.3 149.3 16.3 148.1 16.4C144 16.4 141 16.7 138.9 17.1C138.9 17 138.9 16.7 138.8 16.4C138.7 15.6 138.6 14.9 138.4 14.5ZM140.3 26.2V18.3H151.7V26.2H149.1V25.1H142.6V26.2H140.3V26.2ZM149.1 20.3H142.6V23.1H149.1V20.3Z" fill="#783887"/>
<mask id="mask0_102_841" style="mask-type:alpha" maskUnits="userSpaceOnUse" x="0" y="0" width="35" height="35">
<rect width="35" height="35" fill="white"/>
</mask>
<g mask="url(#mask0_102_841)">
<path d="M32.1527 19.9495C29.3729 19.5671 26.608 20.7154 24.1892 22.138C21.7704 23.5606 19.5016 25.2928 16.8717 26.274C14.2419 27.2553 11.0571 27.3452 8.83754 25.6313C7.55208 24.6318 6.72616 23.1075 6.42944 21.5071C6.13271 19.9067 6.3416 18.2388 6.86542 16.6973C7.65706 14.3685 9.20819 12.2667 11.3217 11.007C13.4352 9.74721 16.4261 9.308 18.7292 10.1714C20.005 10.6502 21.1802 11.5297 21.7597 12.7638C22.7302 14.8291 21.7351 17.2383 19.914 18.4552L20.29 18.3063C19.102 18.8558 17.6826 19.1065 16.4571 18.5205C15.6912 18.1552 15.071 17.4386 14.9424 16.5998C14.7582 15.4033 15.6462 14.2013 16.7946 13.8146C17.4116 13.6079 18.14 13.6165 18.6596 14.0064C19.1791 14.3963 19.3709 15.2308 18.9435 15.7203C18.561 16.1585 17.8969 16.1724 17.3163 16.1488C17.9162 17.0176 19.3098 17.0915 20.1154 16.4091C20.9209 15.7268 21.1245 14.497 20.7581 13.5083C20.3917 12.5195 19.5337 11.7686 18.576 11.3262C17.358 10.77 15.9833 10.6589 14.6918 11.0123C13.9708 11.2126 13.2263 11.6293 13.0025 12.3428C12.8953 12.6941 12.9221 13.0744 12.8525 13.4354C12.6629 14.4199 11.7813 15.113 11.3721 16.0289C10.6222 17.7107 11.7598 19.7931 13.432 20.5633C14.0608 20.8515 14.7721 21.0143 15.2745 21.4889C15.6269 21.821 15.8412 22.2762 16.1818 22.6212C16.7828 23.2296 17.719 23.4149 18.5642 23.2821C19.4094 23.1493 20.1861 22.7465 20.9209 22.3009C22.4656 21.3732 23.9278 20.2516 24.9691 18.7819C26.4343 16.7135 26.7635 14.0477 25.8453 11.685C25.5991 11.0674 25.2839 10.4795 24.9059 9.93253C20.6113 3.66802 11.3378 2.63536 5.4332 7.16128C3.06259 8.98235 1.36256 11.6015 0.545214 14.4713C-0.0493983 16.5226 -0.159411 18.684 0.223847 20.7851C1.17831 25.8134 5.13004 30.1529 10.048 31.5691C6.09307 30.0019 3.17721 26.1058 2.74765 21.8745C2.31809 17.6432 4.37376 13.2587 7.8788 10.8495C4.60836 13.5972 3.13221 18.2688 4.1081 22.4283C5.08398 26.5879 8.41334 30.079 12.4851 31.373C16.5568 32.6671 21.2262 31.7747 24.6156 29.1727C26.3692 27.8262 27.7703 26.0833 29.3557 24.5419C30.9411 23.0004 32.8169 21.6142 35 21.2618C34.2705 20.4862 33.2078 20.0963 32.1527 19.9495Z" fill="url(#paint0_linear_102_841)"/>
</g>
<defs>
<linearGradient id="paint0_linear_102_841" x1="-3.83406e-05" y1="31.9608" x2="35" y2="31.9608" gradientUnits="userSpaceOnUse">
<stop stop-color="#E1730E"/>
<stop offset="1" stop-color="#F3E727"/>
</linearGradient>
</defs>
</svg>
