<svg width="174" height="35" viewBox="0 0 174 35" fill="none" xmlns="http://www.w3.org/2000/svg">
<g clip-path="url(#clip0_103_1082)">
<path d="M48.5357 17.1086C47.25 16.1314 46.0714 15.3714 45 14.9372L46.3929 12.7657C47.5714 13.4172 48.75 14.1772 49.8214 14.9372L48.5357 17.1086ZM45.3214 24.3829C46.1786 22.8629 47.0357 20.6914 47.7857 17.6514C48.4286 18.0857 49.0714 18.52 49.7143 18.7372C49.3929 19.8229 48.9643 21.4514 48.4286 23.84C48.2143 24.8172 48.1071 25.5772 48 26.0114C46.6071 25.36 45.75 24.8172 45.3214 24.3829ZM45.8571 9.94287L47.4643 7.98859C48.5357 8.85716 49.3929 9.72573 49.9286 10.3772L48.4286 12.2229C47.5714 11.2457 46.7143 10.4857 45.8571 9.94287ZM52.9286 17.76V11.5714H54.9643V17.9772C54.9643 18.8457 54.9643 19.8229 54.8571 20.8C56.3571 21.8857 57.6429 22.8629 58.7143 23.7314C57.75 24.4914 57.1071 25.2514 56.6786 25.7943C56.4643 25.5772 56.1429 25.2514 55.6071 24.7086C54.9643 24.0572 54.4286 23.5143 54.1071 23.1886C53.25 24.3829 52.1786 25.4686 50.8929 26.4457C50.3571 25.7943 49.7143 25.2514 48.9643 24.7086C50.5714 23.6229 51.6429 22.6457 52.1786 21.7772C52.7143 20.8 52.9286 19.4972 52.9286 17.76ZM50.25 8.74859H57.6429V20.8H55.6071V10.7029H52.3929V20.9086H50.3571V8.74859H50.25ZM58.2857 21.1257V9.94287H59.6786C60 9.94287 60.2143 9.94287 60.3214 10.0514V10.16C60.2143 10.3772 60.2143 10.7029 60.2143 11.2457V21.0172H58.2857V21.1257ZM60.75 23.1886V8.20573H62.1429C62.7857 8.20573 63.2143 8.20573 63.3214 8.3143C63.3214 8.42287 63.3214 8.53144 63.2143 8.64002C63.1071 8.96573 63.1071 9.29144 63.1071 9.72573V24.6C63.3214 26.12 62.1429 26.7714 59.6786 26.5543C59.6786 25.6857 59.4643 24.8172 59.1429 24.0572C60.3214 24.1657 60.8571 23.9486 60.75 23.1886Z" fill="white"/>
<path d="M67.8214 18.5201V15.8058H65.4643V13.5258H70.2857V20.1486C70.3929 20.0401 70.7143 19.7143 71.0357 19.3886C71.3571 19.1715 71.5714 18.9543 71.6786 18.8458C72 19.6058 72.4286 20.3658 72.75 20.9086L71.8929 21.7772L73.3929 21.3429V17.3258H72.1071V15.0458H76.8214V17.2172H75.8571V20.8001L77.25 20.3658C77.25 21.4515 77.4643 22.3201 77.6786 22.9715C75.8571 23.5143 73.9286 24.2743 72 25.0343C71.8929 25.0343 71.8929 24.6001 71.6786 23.7315C71.5714 23.0801 71.4643 22.6458 71.3571 22.4286C71.0357 22.8629 70.5 23.6229 69.9643 24.4915C69.5357 25.0343 69.2143 25.5772 68.8929 25.9029C68.6786 25.6858 68.25 25.1429 67.6071 24.3829C67.2857 23.8401 66.9643 23.5143 66.8571 23.4058C67.5 22.1029 67.8214 20.4743 67.8214 18.5201ZM68.7857 12.5486C68.1429 11.2458 67.5 10.1601 67.0714 9.40006L66.9643 9.18291C67.8214 8.74863 68.6786 8.31434 69.5357 7.98863C69.75 8.31434 70.3929 9.50863 71.3571 11.5715C71.1429 11.5715 70.8214 11.7886 70.2857 12.0058C69.6429 12.2229 69.1071 12.4401 68.7857 12.5486ZM77.25 13.3086H71.8929V11.1372H77.25V7.77148C79.1786 7.77148 80.0357 7.77148 79.8214 7.98863V8.31434C79.8214 8.74863 79.7143 9.18291 79.7143 9.72577V11.1372H81.1071C80.8929 10.7029 80.6786 10.2686 80.3571 9.72577C80.1429 9.29148 80.0357 9.07434 80.0357 8.96577C80.6786 8.64006 81.4286 8.31434 82.1786 7.98863C82.5 8.53148 82.9286 9.40006 83.4643 10.4858C83.3571 10.4858 83.0357 10.5943 82.7143 10.8115C82.3929 10.9201 82.1786 11.0286 81.9643 11.1372H83.6786V13.3086H79.8214V14.3943C79.8214 17.9772 80.25 20.6915 81 22.3201C81.2143 22.8629 81.4286 23.0801 81.6429 22.8629C81.75 22.6458 81.8571 22.1029 81.9643 21.1258C82.5 21.4515 83.25 21.7772 84.3214 22.2115C83.8929 26.1201 82.5 27.3143 80.3571 25.7943C78.4286 24.1658 77.3571 20.3658 77.3571 14.3943V13.3086H77.25Z" fill="white"/>
<path d="M86.3571 12.3315C87.5357 10.7029 88.5 9.07431 89.0357 7.55431C90.2143 7.66288 91.0714 7.77145 91.6072 7.88003C91.8214 7.88003 91.9286 7.9886 91.8214 8.09717C91.8214 8.09717 91.7143 8.20574 91.6072 8.42288C91.5 8.64003 91.2857 8.85717 91.1786 9.07431H95.3572V11.0286H92.8929C93.2143 11.8972 93.4286 12.44 93.3214 12.5486C93.3214 12.5486 92.5714 12.8743 90.9643 13.3086C90.9643 13.3086 90.8572 12.5486 90.5357 11.0286H89.8929C89.25 12.0057 88.7143 12.7657 88.2857 13.3086L86.3571 12.3315ZM96.5357 12.5486L96.6429 13.4172H103.929V17H101.464V15.1543H88.8214V16.8915H86.4643V13.3086H93.9643C93.8571 13.0915 93.75 12.7657 93.5357 12.3315C93.5357 12.2229 94.1786 12.1143 95.5714 12.1143C95.4643 12.1143 95.25 12.0057 95.0357 11.7886C96 10.3772 96.6429 8.85717 97.0714 7.44574C98.1429 7.44574 99 7.55431 99.6429 7.66288C99.75 7.66288 99.8571 7.66288 99.9643 7.77145C99.9643 7.88003 99.8572 7.88003 99.8572 8.09717C99.75 8.20574 99.5357 8.53145 99.4286 8.85717H104.25V11.0286H101.679L102.107 12.6572L99.9643 13.3086C99.8571 12.8743 99.5357 12.1143 99.2143 11.0286H98.25C97.8214 11.68 97.3929 12.3315 97.1786 12.7657C97.0714 12.8743 96.8572 12.7657 96.5357 12.5486ZM92.25 26.4457H89.6786V16.0229H100.607V20.2572H92.1429V21.0172H101.25V26.4457H98.7857V25.5772H92.1429V26.4457H92.25ZM98.25 18.52V17.76H92.25V18.52H98.25ZM98.8929 23.7315V22.7543H92.25V23.7315H98.8929Z" fill="white"/>
<path d="M108.75 11.0286H106.286V8.8572H113.036V11.0286H111.107V14.5029H112.929V16.6743H111.107V20.5829C111.321 20.5829 111.643 20.4743 111.964 20.3658C112.393 20.2572 112.821 20.0401 113.036 19.9315C113.036 20.1486 113.036 20.4743 113.143 20.8001C113.143 21.6686 113.25 22.2115 113.25 22.3201C111.214 22.9715 109.179 23.7315 107.143 24.6001C106.714 23.7315 106.393 22.7543 106.071 21.7772C106.393 21.6686 106.821 21.5601 107.464 21.4515C108 21.3429 108.429 21.2343 108.75 21.1258V16.6743H106.393V14.5029H108.75V11.0286V11.0286ZM113.786 21.8858V19.8229H117.321V18.4115H113.464V8.42291H123.857V18.4115H119.679V19.8229H123.75V21.8858H119.679V23.6229H124.714V25.9029H112.179V23.6229H117.214V21.8858H113.786ZM115.929 10.4858V12.4401H117.321V10.4858H115.929ZM115.929 14.3943V16.2401H117.321V14.3943H115.929V14.3943ZM119.786 10.4858V12.4401H121.5V10.4858H119.786ZM119.786 16.2401H121.5V14.3943H119.786V16.2401Z" fill="white"/>
<path d="M128.464 10.5943V8.20575H142.929V10.5943H137.036V17.3257H144.857V19.7143H137.036V26.6629H134.357V19.7143H126.643V17.3257H134.357V10.5943H128.464V10.5943ZM128.893 12.44C129.107 12.3315 129.536 12.1143 129.964 11.8972C130.393 11.68 130.821 11.4629 131.036 11.3543C131.464 12.0057 132.321 13.5258 133.607 16.0229C133.071 16.3486 132.214 16.6743 131.25 17.1086C131.143 16.8915 131.036 16.5658 130.821 16.1315C130.071 14.3943 129.429 13.2 128.893 12.44ZM137.679 16.0229C138.429 14.8286 139.179 13.2 140.036 11.1372C141.536 11.8972 142.393 12.3315 142.607 12.5486C141.75 14.0686 140.786 15.5886 139.929 17.1086C139.929 17.1086 139.821 17.1086 139.821 17C138.964 16.4572 138.321 16.1315 137.679 16.0229Z" fill="white"/>
<path d="M148.286 13.7429C150.536 13.8515 152.571 11.7886 154.393 7.44574C156.107 7.88003 157.179 8.20574 157.607 8.53145C156.214 10.2686 154.714 12.0057 153.107 13.6343L159.75 13.5257C159.429 13.2 158.786 12.6572 158.036 11.8972C157.821 11.68 157.607 11.4629 157.393 11.3543L159.643 9.83431C160.929 10.92 162.643 12.6572 164.893 15.0457L162.536 16.8915C162.214 16.4572 161.893 16.0229 161.571 15.6972C160.929 15.6972 159.964 15.6972 158.679 15.8057C154.286 15.8057 151.071 16.1315 148.821 16.5657C148.821 16.4572 148.821 16.1315 148.714 15.8057C148.607 14.9372 148.5 14.1772 148.286 13.7429ZM150.321 26.4457V17.8686H162.536V26.4457H159.75V25.2515H152.786V26.4457H150.321V26.4457ZM159.75 20.04H152.786V23.08H159.75V20.04Z" fill="white"/>
<mask id="mask0_103_1082" style="mask-type:alpha" maskUnits="userSpaceOnUse" x="0" y="-2" width="38" height="38">
<rect y="-2" width="37.5" height="38" fill="white"/>
</mask>
<g mask="url(#mask0_103_1082)">
<path d="M34.4493 19.6595C31.4709 19.2443 28.5086 20.4911 25.917 22.0356C23.3254 23.5801 20.8945 25.4607 18.0768 26.5261C15.2591 27.5914 11.8469 27.6891 9.4688 25.8283C8.09151 24.7431 7.20661 23.0881 6.88868 21.3505C6.57076 19.613 6.79457 17.8021 7.35581 16.1285C8.20399 13.6 9.86591 11.3182 12.1304 9.95042C14.3949 8.58268 17.5994 8.10583 20.067 9.04324C21.434 9.56312 22.693 10.518 23.314 11.8578C24.3538 14.1001 23.2876 16.7158 21.3364 18.037L21.7393 17.8754C20.4664 18.472 18.9457 18.7442 17.6327 18.108C16.812 17.7114 16.1475 16.9333 16.0098 16.0227C15.8123 14.7235 16.7638 13.4186 17.9942 12.9987C18.6553 12.7743 19.4358 12.7836 19.9924 13.2069C20.5491 13.6303 20.7545 14.5363 20.2966 15.0678C19.8868 15.5435 19.1752 15.5586 18.5531 15.533C19.1959 16.4762 20.6891 16.5565 21.5522 15.8156C22.4153 15.0748 22.6334 13.7396 22.2408 12.6661C21.8483 11.5926 20.929 10.7773 19.9029 10.297C18.5978 9.69314 17.125 9.57255 15.7412 9.95623C14.9688 10.1737 14.1711 10.6261 13.9312 11.4007C13.8164 11.7822 13.8451 12.1951 13.7705 12.587C13.5674 13.6559 12.6228 14.4084 12.1843 15.4028C11.3809 17.2287 12.5998 19.4897 14.3914 20.3259C15.0652 20.6388 15.8273 20.8155 16.3656 21.3308C16.7432 21.6913 16.9727 22.1856 17.3377 22.5601C17.9816 23.2207 18.9847 23.4219 19.8903 23.2777C20.7958 23.1335 21.6279 22.6962 22.4153 22.2124C24.0703 21.2052 25.637 19.9875 26.7526 18.3918C28.3225 16.1461 28.6751 13.2518 27.6914 10.6866C27.4276 10.016 27.0899 9.37776 26.6849 8.78389C22.0836 1.98242 12.1476 0.861251 5.82129 5.7751C3.28134 7.75227 1.45988 10.5959 0.584158 13.7117C-0.0529268 15.9388 -0.170798 18.2855 0.239836 20.5667C1.26247 26.026 5.49648 30.7374 10.7657 32.275C6.52829 30.5735 3.40415 26.3435 2.94391 21.7495C2.48366 17.1555 4.68617 12.3951 8.44157 9.77945C4.93753 12.7627 3.35594 17.8347 4.40153 22.3508C5.44712 26.8669 9.01429 30.6572 13.3768 32.0622C17.7394 33.4671 22.7424 32.4983 26.3738 29.6733C28.2527 28.2113 29.7539 26.3191 31.4526 24.6454C33.1512 22.9718 35.1609 21.4668 37.5 21.0842C36.7184 20.2422 35.5798 19.8188 34.4493 19.6595Z" fill="white"/>
</g>
</g>
<defs>
<clipPath id="clip0_103_1082">
<rect width="174" height="35" fill="white"/>
</clipPath>
</defs>
</svg>
